Coordinates
version=1
nRows=5
nColumns=40
inDegrees=yes

Units are S.I. units (second, meters, Newtons, ...)
If the header above contains a line with 'inDegrees', this indicates whether rotational values are in degrees (yes) or radians (no).

endheader
time	pelvis_tilt	pelvis_list	pelvis_rotation	pelvis_tx	pelvis_ty	pelvis_tz	hip_flexion_r	hip_adduction_r	hip_rotation_r	knee_angle_r	knee_angle_r_beta	ankle_angle_r	subtalar_angle_r	mtp_angle_r	hip_flexion_l	hip_adduction_l	hip_rotation_l	knee_angle_l	knee_angle_l_beta	ankle_angle_l	subtalar_angle_l	mtp_angle_l	lumbar_extension	lumbar_bending	lumbar_rotation	arm_flex_r	arm_add_r	arm_rot_r	elbow_flex_r	pro_sup_r	wrist_flex_r	wrist_dev_r	arm_flex_l	arm_add_l	arm_rot_l	elbow_flex_l	pro_sup_l	wrist_flex_l	wrist_dev_l
     12.22500000	     -5.39143392	     16.38066045	      3.65108581	     -0.24624382	      1.06823871	      0.26336511	     52.54032267	    -24.14582966	      6.70351521	     48.40856839	      0.84488890	    -10.53630547	    -15.42100600	      0.00000000	     68.24833734	      2.13008559	    -10.09128584	    115.31538596	      2.01263316	     21.79747773	     -6.41622155	      0.00000000	    -52.69217353	    -11.30188501	    -17.50051469	     89.74122387	     -8.15412841	     61.45355592	     19.63073481	     87.37839834	      0.00000000	      0.00000000	     89.85946408	     -6.55002089	     39.99901873	     32.19260779	     88.89021342	      0.00000000	      0.00000000
     12.23333333	     -5.70413186	     16.64756999	      3.85410459	     -0.24609602	      1.06795884	      0.26322686	     51.32127388	    -24.50397362	      6.41066923	     46.73567990	      0.81569149	    -11.65503697	    -15.49551268	      0.00000000	     69.97732588	      1.93889050	    -10.38213665	    116.53630435	      2.03394221	     22.41341767	     -6.27194962	      0.00000000	    -52.49843956	    -11.57158830	    -17.86866958	     89.72005399	     -8.18119029	     61.76528862	     19.55813842	     87.41563728	      0.00000000	      0.00000000	     89.85844583	     -6.58268505	     40.15548367	     32.25896934	     88.89487579	      0.00000000	      0.00000000
     12.24166667	     -6.43365754	     15.64195929	      4.24906655	     -0.24665032	      1.06647268	      0.26364955	     50.24880736	    -23.66518536	      5.36969047	     45.27424885	      0.79018471	    -14.08802285	    -17.76622859	      0.00000000	     72.60227908	      1.01038131	     -9.32588257	    117.97894141	      2.05912098	     23.17702868	     -5.00435181	      0.00000000	    -51.59523931	    -10.95041938	    -17.25562017	     89.73050216	     -8.21489367	     62.62395622	     19.24470525	     87.19959007	      0.00000000	      0.00000000	     89.85533115	     -6.48716283	     40.34320779	     32.14458115	     88.88816364	      0.00000000	      0.00000000
     12.25000000	     -6.70061416	     15.95654225	      4.34565580	     -0.24666006	      1.06633103	      0.26348370	     49.22683990	    -24.00211939	      5.21443601	     44.04956015	      0.76880986	    -14.89236638	    -17.71341358	      0.00000000	     74.21936634	      0.74615161	     -9.82457571	    118.81804932	      2.07376617	     23.79858448	     -4.92947186	      0.00000000	    -51.47228330	    -11.31523877	    -17.61456844	     89.70186145	     -8.27982871	     62.73062823	     19.27972039	     87.23732356	      0.00000000	      0.00000000	     89.85422902	     -6.48341789	     40.40488139	     32.23893881	     88.89577658	      0.00000000	      0.00000000
     12.25833333	     -6.98373241	     16.05973013	      4.45410636	     -0.24679220	      1.06603771	      0.26330312	     48.27139482	    -24.18054407	      4.88034665	     42.99306085	      0.75037047	    -16.39904305	    -17.86357816	      0.00000000	     75.75197577	      0.16708441	    -10.31263543	    119.52040079	      2.08602452	     24.57050895	     -4.58222954	      0.00000000	    -51.26888095	    -11.49711644	    -17.75416330	     89.70145346	     -8.38332677	     63.03649296	     19.23752083	     87.28436232	      0.00000000	      0.00000000	     89.85305756	     -6.47753497	     40.56508901	     32.36188814	     88.89684630	      0.00000000	      0.00000000
